<?xml version="1.0" encoding="UTF-8"?>
<svg width="35px" height="34px" viewBox="0 0 35 34" version="1.1" xmlns="http://www.w3.org/2000/svg" xmlns:xlink="http://www.w3.org/1999/xlink">
    <!-- Generator: Sketch 42 (36781) - http://www.bohemiancoding.com/sketch -->
    <title>Artboard</title>
    <desc>Created with Sketch.</desc>
    <defs></defs>
    <g id="Page-1" stroke="none" stroke-width="1" fill="none" fill-rule="evenodd">
        <g id="Artboard" fill="#151513">
            <path d="M17.4984806,1 C8.38825624,1 1,8.38724332 1,17.5005065 C1,24.7905092 5.727309,30.9744007 12.2839559,33.1562356 C13.1094877,33.308174 13.4103257,32.798674 13.4103257,32.3610915 C13.4103257,31.9701034 13.3961448,30.9318579 13.3880414,29.5552964 C8.79848982,30.552012 7.83013598,27.3430738 7.83013598,27.3430738 C7.07956045,25.4367537 5.99775929,24.9292796 5.99775929,24.9292796 C4.49964701,23.9062279 6.11120661,23.9264864 6.11120661,23.9264864 C7.76733479,24.0429725 8.63844808,25.6271832 8.63844808,25.6271832 C10.1102244,28.1483471 12.5007213,27.4200559 13.4407133,26.9976672 C13.5906259,25.9320728 14.0170662,25.2047945 14.4880751,24.7925351 C10.8243347,24.3762239 6.97219067,22.9601584 6.97219067,16.6374965 C6.97219067,14.8365205 7.61539642,13.3627183 8.6708616,12.2100126 C8.50069063,11.7926885 7.93446699,10.1142761 8.83292919,7.84330397 C8.83292919,7.84330397 10.2175942,7.39964394 13.3698088,9.53488443 C14.685595,9.16820651 16.0976089,8.98588048 17.5005065,8.97879002 C18.9023911,8.98588048 20.3133921,9.16820651 21.6312041,9.53488443 C24.7813929,7.39964394 26.164032,7.84330397 26.164032,7.84330397 C27.0645201,10.1142761 26.4982964,11.7926885 26.3291384,12.2100126 C27.3866294,13.3627183 28.0247706,14.8365205 28.0247706,16.6374965 C28.0247706,22.9763651 24.166549,24.3711593 20.4916664,24.7793671 C21.0832131,25.2888671 21.6109457,26.295712 21.6109457,27.8353541 C21.6109457,30.0404862 21.5906873,31.8201909 21.5906873,32.3610915 C21.5906873,32.8027257 21.8884864,33.3162774 22.7251604,33.1552227 C29.2767427,30.9683232 34,24.7884834 34,17.5005065 C34,8.38724332 26.6117438,1 17.4984806,1" id="Fill-3"></path>
        </g>
    </g>
</svg>